<?xml version="1.0" encoding="UTF-8" standalone="no"?>
<!DOCTYPE svg PUBLIC "-//W3C//DTD SVG 1.1//EN"
 "http://www.w3.org/Graphics/SVG/1.1/DTD/svg11.dtd">
<!-- Generated by graphviz version 2.40.1 (20161225.0304)
 -->
<!-- Title: state transitions Pages: 1 -->
<svg width="1338pt" height="598pt"
 viewBox="0.00 0.00 1338.00 598.00" xmlns="http://www.w3.org/2000/svg" xmlns:xlink="http://www.w3.org/1999/xlink">
<g id="graph0" class="graph" transform="scale(1 1) rotate(0) translate(4 594)">
<title>state transitions</title>
<polygon fill="#ffffff" stroke="transparent" points="-4,4 -4,-594 1334,-594 1334,4 -4,4"/>
<g id="clust1" class="cluster">
<title>cluster_next_state</title>
<path fill="none" stroke="#000000" stroke-width="2" d="M20,-8C20,-8 1310,-8 1310,-8 1316,-8 1322,-14 1322,-20 1322,-20 1322,-570 1322,-570 1322,-576 1316,-582 1310,-582 1310,-582 20,-582 20,-582 14,-582 8,-576 8,-570 8,-570 8,-20 8,-20 8,-14 14,-8 20,-8"/>
<text text-anchor="start" x="637.8208" y="-563.2" font-family="Helvetica,sans-Serif" font-size="12.00" fill="#000000">next_state</text>
</g>
<!-- next_state -->
<!-- DECODE_ADDRESS -->
<g id="node2" class="node">
<title>DECODE_ADDRESS</title>
<polygon fill="transparent" stroke="transparent" stroke-width="2" points="916.5,-544 779.5,-544 779.5,-508 916.5,-508 916.5,-544"/>
<text text-anchor="start" x="790.5004" y="-522.2" font-family="Helvetica,sans-Serif" font-size="12.00" fill="#000000">DECODE_ADDRESS</text>
<path fill="none" stroke="#000000" stroke-width="2" d="M791.8333,-509C791.8333,-509 904.1667,-509 904.1667,-509 909.8333,-509 915.5,-514.6667 915.5,-520.3333 915.5,-520.3333 915.5,-531.6667 915.5,-531.6667 915.5,-537.3333 909.8333,-543 904.1667,-543 904.1667,-543 791.8333,-543 791.8333,-543 786.1667,-543 780.5,-537.3333 780.5,-531.6667 780.5,-531.6667 780.5,-520.3333 780.5,-520.3333 780.5,-514.6667 786.1667,-509 791.8333,-509"/>
</g>
<!-- DECODE_ADDRESS&#45;&gt;DECODE_ADDRESS -->
<g id="edge2" class="edge">
<title>DECODE_ADDRESS&#45;&gt;DECODE_ADDRESS</title>
<path fill="none" stroke="#000000" d="M916.6652,-530.6248C929.4771,-530.0553 938.5,-528.5137 938.5,-526 938.5,-524.2326 934.0392,-522.9457 926.937,-522.1395"/>
<polygon fill="#000000" stroke="#000000" points="926.8974,-518.6269 916.6652,-521.3752 926.3779,-525.6076 926.8974,-518.6269"/>
<text text-anchor="start" x="938.5" y="-523" font-family="Helvetica,sans-Serif" font-size="10.00" fill="#000000">not (pkt_valid &amp;&amp; (fifo_empty_0 || fifo_empty_1 || fifo_empty_2 || fifo_empty_3)) &#160;&#160;</text>
</g>
<!-- LOAD_FIRST_DATA -->
<g id="node3" class="node">
<title>LOAD_FIRST_DATA</title>
<polygon fill="transparent" stroke="transparent" stroke-width="2" points="855,-462 721,-462 721,-426 855,-426 855,-462"/>
<text text-anchor="start" x="731.663" y="-440.2" font-family="Helvetica,sans-Serif" font-size="12.00" fill="#000000">LOAD_FIRST_DATA</text>
<path fill="none" stroke="#000000" stroke-width="2" d="M733.3333,-427C733.3333,-427 842.6667,-427 842.6667,-427 848.3333,-427 854,-432.6667 854,-438.3333 854,-438.3333 854,-449.6667 854,-449.6667 854,-455.3333 848.3333,-461 842.6667,-461 842.6667,-461 733.3333,-461 733.3333,-461 727.6667,-461 722,-455.3333 722,-449.6667 722,-449.6667 722,-438.3333 722,-438.3333 722,-432.6667 727.6667,-427 733.3333,-427"/>
</g>
<!-- DECODE_ADDRESS&#45;&gt;LOAD_FIRST_DATA -->
<g id="edge1" class="edge">
<title>DECODE_ADDRESS&#45;&gt;LOAD_FIRST_DATA</title>
<path fill="none" stroke="#000000" d="M821.6014,-507.9577C815.6947,-502.9902 809.8725,-497.2343 805.432,-491 801.2934,-485.1896 798.018,-478.2815 795.4772,-471.5744"/>
<polygon fill="#000000" stroke="#000000" points="798.7754,-470.4016 792.2653,-462.0428 792.1419,-472.6369 798.7754,-470.4016"/>
<text text-anchor="start" x="805" y="-482" font-family="Helvetica,sans-Serif" font-size="10.00" fill="#000000">pkt_valid &amp;&amp; (fifo_empty_0 || fifo_empty_1 || fifo_empty_2 || fifo_empty_3) &#160;&#160;</text>
</g>
<!-- LOAD_DATA -->
<g id="node4" class="node">
<title>LOAD_DATA</title>
<polygon fill="transparent" stroke="transparent" stroke-width="2" points="868.5,-380 775.5,-380 775.5,-344 868.5,-344 868.5,-380"/>
<text text-anchor="start" x="786.8294" y="-358.2" font-family="Helvetica,sans-Serif" font-size="12.00" fill="#000000">LOAD_DATA</text>
<path fill="none" stroke="#000000" stroke-width="2" d="M787.8333,-345C787.8333,-345 856.1667,-345 856.1667,-345 861.8333,-345 867.5,-350.6667 867.5,-356.3333 867.5,-356.3333 867.5,-367.6667 867.5,-367.6667 867.5,-373.3333 861.8333,-379 856.1667,-379 856.1667,-379 787.8333,-379 787.8333,-379 782.1667,-379 776.5,-373.3333 776.5,-367.6667 776.5,-367.6667 776.5,-356.3333 776.5,-356.3333 776.5,-350.6667 782.1667,-345 787.8333,-345"/>
</g>
<!-- LOAD_FIRST_DATA&#45;&gt;LOAD_DATA -->
<g id="edge3" class="edge">
<title>LOAD_FIRST_DATA&#45;&gt;LOAD_DATA</title>
<path fill="none" stroke="#000000" d="M795.5457,-425.8015C799.9476,-415.1853 805.5894,-401.5784 810.5314,-389.6596"/>
<polygon fill="#000000" stroke="#000000" points="813.8783,-390.7256 814.4754,-380.1476 807.4121,-388.0444 813.8783,-390.7256"/>
<text text-anchor="middle" x="808.3895" y="-400" font-family="Helvetica,sans-Serif" font-size="10.00" fill="#000000"> </text>
</g>
<!-- LOAD_DATA&#45;&gt;LOAD_DATA -->
<g id="edge6" class="edge">
<title>LOAD_DATA&#45;&gt;LOAD_DATA</title>
<path fill="none" stroke="#000000" d="M868.7439,-366.8322C881.1236,-366.556 890.5,-364.9453 890.5,-362 890.5,-359.9291 885.8645,-358.518 878.8087,-357.7666"/>
<polygon fill="#000000" stroke="#000000" points="878.9341,-354.268 868.7439,-357.1678 878.5183,-361.2556 878.9341,-354.268"/>
<text text-anchor="start" x="890.5" y="-365" font-family="Helvetica,sans-Serif" font-size="10.00" fill="#000000">not (~pkt_valid &amp;&amp; ~fifo_full) &#160;&#160;</text>
<text text-anchor="start" x="890.5" y="-353" font-family="Helvetica,sans-Serif" font-size="10.00" fill="#000000">not (fifo_full) &#160;&#160;</text>
</g>
<!-- LOAD_PARITY -->
<g id="node5" class="node">
<title>LOAD_PARITY</title>
<polygon fill="transparent" stroke="transparent" stroke-width="2" points="725,-298 621,-298 621,-262 725,-262 725,-298"/>
<text text-anchor="start" x="631.6606" y="-276.2" font-family="Helvetica,sans-Serif" font-size="12.00" fill="#000000">LOAD_PARITY</text>
<path fill="none" stroke="#000000" stroke-width="2" d="M633.3333,-263C633.3333,-263 712.6667,-263 712.6667,-263 718.3333,-263 724,-268.6667 724,-274.3333 724,-274.3333 724,-285.6667 724,-285.6667 724,-291.3333 718.3333,-297 712.6667,-297 712.6667,-297 633.3333,-297 633.3333,-297 627.6667,-297 622,-291.3333 622,-285.6667 622,-285.6667 622,-274.3333 622,-274.3333 622,-268.6667 627.6667,-263 633.3333,-263"/>
</g>
<!-- LOAD_DATA&#45;&gt;LOAD_PARITY -->
<g id="edge4" class="edge">
<title>LOAD_DATA&#45;&gt;LOAD_PARITY</title>
<path fill="none" stroke="#000000" d="M782.1891,-343.8718C771.2974,-338.656 759.574,-332.8022 748.965,-327 735.8262,-319.8142 721.7912,-311.3622 709.4053,-303.6217"/>
<polygon fill="#000000" stroke="#000000" points="711.0395,-300.5145 700.7143,-298.1394 707.3048,-306.435 711.0395,-300.5145"/>
<text text-anchor="start" x="748" y="-318" font-family="Helvetica,sans-Serif" font-size="10.00" fill="#000000">~pkt_valid &amp;&amp; ~fifo_full &#160;&#160;</text>
</g>
<!-- FIFO_FULL_STATE -->
<g id="node6" class="node">
<title>FIFO_FULL_STATE</title>
<polygon fill="transparent" stroke="transparent" stroke-width="2" points="828,-134 698,-134 698,-98 828,-98 828,-134"/>
<text text-anchor="start" x="708.661" y="-112.2" font-family="Helvetica,sans-Serif" font-size="12.00" fill="#000000">FIFO_FULL_STATE</text>
<path fill="none" stroke="#000000" stroke-width="2" d="M710.3333,-99C710.3333,-99 815.6667,-99 815.6667,-99 821.3333,-99 827,-104.6667 827,-110.3333 827,-110.3333 827,-121.6667 827,-121.6667 827,-127.3333 821.3333,-133 815.6667,-133 815.6667,-133 710.3333,-133 710.3333,-133 704.6667,-133 699,-127.3333 699,-121.6667 699,-121.6667 699,-110.3333 699,-110.3333 699,-104.6667 704.6667,-99 710.3333,-99"/>
</g>
<!-- LOAD_DATA&#45;&gt;FIFO_FULL_STATE -->
<g id="edge5" class="edge">
<title>LOAD_DATA&#45;&gt;FIFO_FULL_STATE</title>
<path fill="none" stroke="#000000" d="M853.2501,-343.931C859.9189,-337.7584 865,-330.0771 865,-321 865,-321 865,-321 865,-157 865,-148.7038 853.2366,-141.314 837.6994,-135.1716"/>
<polygon fill="#000000" stroke="#000000" points="838.7696,-131.8365 828.1757,-131.7018 836.3734,-138.4136 838.7696,-131.8365"/>
<text text-anchor="start" x="865" y="-236" font-family="Helvetica,sans-Serif" font-size="10.00" fill="#000000">fifo_full &#160;&#160;</text>
</g>
<!-- CHECK_PARITY_ERROR -->
<g id="node9" class="node">
<title>CHECK_PARITY_ERROR</title>
<polygon fill="transparent" stroke="transparent" stroke-width="2" points="754.5,-216 591.5,-216 591.5,-180 754.5,-180 754.5,-216"/>
<text text-anchor="start" x="602.5008" y="-194.2" font-family="Helvetica,sans-Serif" font-size="12.00" fill="#000000">CHECK_PARITY_ERROR</text>
<path fill="none" stroke="#000000" stroke-width="2" d="M603.8333,-181C603.8333,-181 742.1667,-181 742.1667,-181 747.8333,-181 753.5,-186.6667 753.5,-192.3333 753.5,-192.3333 753.5,-203.6667 753.5,-203.6667 753.5,-209.3333 747.8333,-215 742.1667,-215 742.1667,-215 603.8333,-215 603.8333,-215 598.1667,-215 592.5,-209.3333 592.5,-203.6667 592.5,-203.6667 592.5,-192.3333 592.5,-192.3333 592.5,-186.6667 598.1667,-181 603.8333,-181"/>
</g>
<!-- LOAD_PARITY&#45;&gt;CHECK_PARITY_ERROR -->
<g id="edge7" class="edge">
<title>LOAD_PARITY&#45;&gt;CHECK_PARITY_ERROR</title>
<path fill="none" stroke="#000000" d="M673,-261.8015C673,-251.3976 673,-238.1215 673,-226.3768"/>
<polygon fill="#000000" stroke="#000000" points="676.5001,-226.1476 673,-216.1476 669.5001,-226.1476 676.5001,-226.1476"/>
<text text-anchor="middle" x="674.3895" y="-236" font-family="Helvetica,sans-Serif" font-size="10.00" fill="#000000"> </text>
</g>
<!-- FIFO_FULL_STATE&#45;&gt;FIFO_FULL_STATE -->
<g id="edge9" class="edge">
<title>FIFO_FULL_STATE&#45;&gt;FIFO_FULL_STATE</title>
<path fill="none" stroke="#000000" d="M828.2588,-120.6581C840.972,-120.1171 850,-118.5645 850,-116 850,-114.1969 845.5367,-112.8939 838.4673,-112.0912"/>
<polygon fill="#000000" stroke="#000000" points="838.4882,-108.5834 828.2588,-111.3419 837.9757,-115.5646 838.4882,-108.5834"/>
<text text-anchor="start" x="850" y="-113" font-family="Helvetica,sans-Serif" font-size="10.00" fill="#000000">not (~fifo_full) &#160;&#160;</text>
</g>
<!-- LOAD_AFTER_FULL -->
<g id="node7" class="node">
<title>LOAD_AFTER_FULL</title>
<polygon fill="transparent" stroke="transparent" stroke-width="2" points="919,-52 783,-52 783,-16 919,-16 919,-52"/>
<text text-anchor="start" x="793.661" y="-30.2" font-family="Helvetica,sans-Serif" font-size="12.00" fill="#000000">LOAD_AFTER_FULL</text>
<path fill="none" stroke="#000000" stroke-width="2" d="M795.3333,-17C795.3333,-17 906.6667,-17 906.6667,-17 912.3333,-17 918,-22.6667 918,-28.3333 918,-28.3333 918,-39.6667 918,-39.6667 918,-45.3333 912.3333,-51 906.6667,-51 906.6667,-51 795.3333,-51 795.3333,-51 789.6667,-51 784,-45.3333 784,-39.6667 784,-39.6667 784,-28.3333 784,-28.3333 784,-22.6667 789.6667,-17 795.3333,-17"/>
</g>
<!-- FIFO_FULL_STATE&#45;&gt;LOAD_AFTER_FULL -->
<g id="edge8" class="edge">
<title>FIFO_FULL_STATE&#45;&gt;LOAD_AFTER_FULL</title>
<path fill="none" stroke="#000000" d="M782.5301,-97.8015C794.7206,-86.4422 810.5857,-71.6588 823.9742,-59.1831"/>
<polygon fill="#000000" stroke="#000000" points="826.5945,-61.5255 831.5245,-52.1476 821.8224,-56.4042 826.5945,-61.5255"/>
<text text-anchor="start" x="812" y="-72" font-family="Helvetica,sans-Serif" font-size="10.00" fill="#000000">~fifo_full &#160;&#160;</text>
</g>
<!-- LOAD_AFTER_FULL&#45;&gt;DECODE_ADDRESS -->
<g id="edge10" class="edge">
<title>LOAD_AFTER_FULL&#45;&gt;DECODE_ADDRESS</title>
<path fill="none" stroke="#000000" d="M919.0494,-36.8245C1006.17,-41.3707 1146,-52.2164 1146,-75 1146,-485 1146,-485 1146,-485 1146,-507.157 1015.037,-517.9555 926.749,-522.7177"/>
<polygon fill="#000000" stroke="#000000" points="926.5447,-519.2235 916.7414,-523.2417 926.9108,-526.2139 926.5447,-519.2235"/>
<text text-anchor="start" x="1146" y="-277" font-family="Helvetica,sans-Serif" font-size="10.00" fill="#000000">parity_done &#160;&#160;</text>
</g>
<!-- LOAD_AFTER_FULL&#45;&gt;LOAD_DATA -->
<g id="edge12" class="edge">
<title>LOAD_AFTER_FULL&#45;&gt;LOAD_DATA</title>
<path fill="none" stroke="#000000" d="M909.0303,-52.0216C924.989,-58.7306 938,-66.7348 938,-75 938,-321 938,-321 938,-321 938,-327.9565 907.9607,-338.4503 878.4549,-347.0798"/>
<polygon fill="#000000" stroke="#000000" points="877.1631,-343.809 868.5133,-349.9271 879.0904,-350.5385 877.1631,-343.809"/>
<text text-anchor="start" x="938" y="-201" font-family="Helvetica,sans-Serif" font-size="10.00" fill="#000000">not (parity_done) &#160;&#160;</text>
<text text-anchor="start" x="938" y="-189" font-family="Helvetica,sans-Serif" font-size="10.00" fill="#000000">not (~parity_done &amp;&amp; low_packet_valid) &#160;&#160;</text>
</g>
<!-- LOAD_AFTER_FULL&#45;&gt;LOAD_PARITY -->
<g id="edge11" class="edge">
<title>LOAD_AFTER_FULL&#45;&gt;LOAD_PARITY</title>
<path fill="none" stroke="#000000" d="M782.8543,-37.2566C699.1149,-42.1923 568,-53.3734 568,-75 568,-239 568,-239 568,-239 568,-250.0018 588.255,-259.2485 610.9726,-266.1595"/>
<polygon fill="#000000" stroke="#000000" points="610.2304,-269.5876 620.8076,-268.9767 612.158,-262.8582 610.2304,-269.5876"/>
<text text-anchor="start" x="568" y="-154" font-family="Helvetica,sans-Serif" font-size="10.00" fill="#000000">~parity_done &amp;&amp; low_packet_valid &#160;&#160;</text>
</g>
<!-- WAIT_TILL_EMPTY -->
<g id="node8" class="node">
<title>WAIT_TILL_EMPTY</title>
<polygon fill="transparent" stroke="transparent" stroke-width="2" points="146,-544 16,-544 16,-508 146,-508 146,-544"/>
<text text-anchor="start" x="26.661" y="-522.2" font-family="Helvetica,sans-Serif" font-size="12.00" fill="#000000">WAIT_TILL_EMPTY</text>
<path fill="none" stroke="#000000" stroke-width="2" d="M28.3333,-509C28.3333,-509 133.6667,-509 133.6667,-509 139.3333,-509 145,-514.6667 145,-520.3333 145,-520.3333 145,-531.6667 145,-531.6667 145,-537.3333 139.3333,-543 133.6667,-543 133.6667,-543 28.3333,-543 28.3333,-543 22.6667,-543 17,-537.3333 17,-531.6667 17,-531.6667 17,-520.3333 17,-520.3333 17,-514.6667 22.6667,-509 28.3333,-509"/>
</g>
<!-- WAIT_TILL_EMPTY&#45;&gt;LOAD_FIRST_DATA -->
<g id="edge13" class="edge">
<title>WAIT_TILL_EMPTY&#45;&gt;LOAD_FIRST_DATA</title>
<path fill="none" stroke="#000000" d="M146.2456,-518.4326C276.9767,-503.27 570.4536,-469.2317 710.6198,-452.9748"/>
<polygon fill="#000000" stroke="#000000" points="711.3196,-456.4172 720.8498,-451.7883 710.5131,-449.4638 711.3196,-456.4172"/>
<text text-anchor="start" x="481" y="-482" font-family="Helvetica,sans-Serif" font-size="10.00" fill="#000000">fifo_empty_0||fifo_empty_1||fifo_empty_2||fifo_empty_3 &#160;&#160;</text>
</g>
<!-- WAIT_TILL_EMPTY&#45;&gt;WAIT_TILL_EMPTY -->
<g id="edge14" class="edge">
<title>WAIT_TILL_EMPTY&#45;&gt;WAIT_TILL_EMPTY</title>
<path fill="none" stroke="#000000" d="M146.2588,-528.329C158.972,-528.0586 168,-527.2822 168,-526 168,-525.0984 163.5367,-524.447 156.4673,-524.0456"/>
<polygon fill="#000000" stroke="#000000" points="156.3804,-520.5401 146.2588,-523.671 156.1237,-527.5354 156.3804,-520.5401"/>
<text text-anchor="start" x="168" y="-523" font-family="Helvetica,sans-Serif" font-size="10.00" fill="#000000">~fifo_empty_0||~fifo_empty_1||~fifo_empty_2||~fifo_empty_3 &#160;&#160;</text>
</g>
<!-- WAIT_TILL_EMPTY&#45;&gt;WAIT_TILL_EMPTY -->
<g id="edge15" class="edge">
<title>WAIT_TILL_EMPTY&#45;&gt;WAIT_TILL_EMPTY</title>
<path fill="none" stroke="#000000" d="M146.0768,-529.489C252.1254,-532.1459 444.243,-530.9829 444.243,-526 444.243,-521.1728 263.9451,-519.9305 156.2625,-522.2731"/>
<polygon fill="#000000" stroke="#000000" points="155.9923,-518.7784 146.0768,-522.511 156.1558,-525.7764 155.9923,-518.7784"/>
<text text-anchor="start" x="444.243" y="-529" font-family="Helvetica,sans-Serif" font-size="10.00" fill="#000000">not (fifo_empty_0||fifo_empty_1||fifo_empty_2||fifo_empty_3) &#160;&#160;</text>
<text text-anchor="start" x="444.243" y="-517" font-family="Helvetica,sans-Serif" font-size="10.00" fill="#000000">not (~fifo_empty_0||~fifo_empty_1||~fifo_empty_2||~fifo_empty_3) &#160;&#160;</text>
</g>
<!-- CHECK_PARITY_ERROR&#45;&gt;DECODE_ADDRESS -->
<g id="edge16" class="edge">
<title>CHECK_PARITY_ERROR&#45;&gt;DECODE_ADDRESS</title>
<path fill="none" stroke="#000000" d="M591.3023,-211.0888C565.7014,-217.5484 544,-226.6626 544,-239 544,-485 544,-485 544,-485 544,-510.0197 743.3071,-503.969 768,-508 768.3425,-508.0559 768.6857,-508.1124 769.0296,-508.1694"/>
<polygon fill="#000000" stroke="#000000" points="768.6967,-511.6649 779.154,-509.9634 769.9181,-504.7722 768.6967,-511.6649"/>
<text text-anchor="start" x="544" y="-359" font-family="Helvetica,sans-Serif" font-size="10.00" fill="#000000">~fifo_full &#160;&#160;</text>
</g>
<!-- CHECK_PARITY_ERROR&#45;&gt;FIFO_FULL_STATE -->
<g id="edge17" class="edge">
<title>CHECK_PARITY_ERROR&#45;&gt;FIFO_FULL_STATE</title>
<path fill="none" stroke="#000000" d="M711.1776,-179.9977C719.2505,-175.1633 727.3346,-169.4559 734,-163 740.0047,-157.184 745.283,-149.878 749.6333,-142.7715"/>
<polygon fill="#000000" stroke="#000000" points="752.7197,-144.4246 754.6321,-134.0037 746.6386,-140.9575 752.7197,-144.4246"/>
<text text-anchor="start" x="743" y="-154" font-family="Helvetica,sans-Serif" font-size="10.00" fill="#000000">fifo_full &#160;&#160;</text>
</g>
<!-- CHECK_PARITY_ERROR&#45;&gt;CHECK_PARITY_ERROR -->
<g id="edge18" class="edge">
<title>CHECK_PARITY_ERROR&#45;&gt;CHECK_PARITY_ERROR</title>
<path fill="none" stroke="#000000" d="M754.5697,-202.4894C767.5886,-201.8324 776.5,-200.3359 776.5,-198 776.5,-196.3575 772.0944,-195.1301 764.9529,-194.3177"/>
<polygon fill="#000000" stroke="#000000" points="764.8109,-190.7962 754.5697,-193.5106 764.2683,-197.7751 764.8109,-190.7962"/>
<text text-anchor="start" x="776.5" y="-201" font-family="Helvetica,sans-Serif" font-size="10.00" fill="#000000">not (~fifo_full) &#160;&#160;</text>
<text text-anchor="start" x="776.5" y="-189" font-family="Helvetica,sans-Serif" font-size="10.00" fill="#000000">not (fifo_full) &#160;&#160;</text>
</g>
</g>
</svg>
